<svg width="1440" height="728" fill="none" xmlns="http://www.w3.org/2000/svg"><g clip-path="url(#clip0_3215_62046)"><path fill="#fff" d="M0 0h1440v728H0z"/><g clip-path="url(#clip1_3215_62046)"><path fill="#fff" d="M0 0h1440v728H0z"/><g opacity=".3" clip-path="url(#clip2_3215_62046)"><path transform="scale(-1 1) rotate(-45 -464.323 2856.375)" fill="url(#paint0_linear_3215_62046)" d="M0 0h1057.05v1847.05H0z"/><path transform="scale(1 -1) rotate(45 1873.61 1289.497)" fill="url(#paint1_linear_3215_62046)" d="M0 0h1057.05v1847.05H0z"/></g><path fill="url(#paint2_linear_3215_62046)" d="M0 0h1440v160H0z"/></g><path fill="url(#paint3_linear_3215_62046)" d="M0 581h1440v147H0z"/></g><defs><linearGradient id="paint0_linear_3215_62046" x1="1028.87" y1="734.31" x2="702.542" y2="1060.64" gradientUnits="userSpaceOnUse"><stop stop-color="#fff"/><stop offset="1" stop-color="#B7BDC6" stop-opacity=".29"/></linearGradient><linearGradient id="paint1_linear_3215_62046" x1="-512.783" y1="805.748" x2="170.636" y2="1489.17" gradientUnits="userSpaceOnUse"><stop stop-color="#D9DDE1"/><stop offset="1" stop-color="#fff"/></linearGradient><linearGradient id="paint2_linear_3215_62046" x1="720" y1="0" x2="720" y2="160" gradientUnits="userSpaceOnUse"><stop stop-color="#fff"/><stop offset="1" stop-color="#fff" stop-opacity="0"/></linearGradient><linearGradient id="paint3_linear_3215_62046" x1="720" y1="581" x2="720" y2="728" gradientUnits="userSpaceOnUse"><stop stop-color="#fff" stop-opacity="0"/><stop offset="1" stop-color="#fff"/></linearGradient><clipPath id="clip0_3215_62046"><path fill="#fff" d="M0 0h1440v728H0z"/></clipPath><clipPath id="clip1_3215_62046"><path fill="#fff" d="M0 0h1440v728H0z"/></clipPath><clipPath id="clip2_3215_62046"><path fill="#fff" transform="matrix(-1 0 0 1 1440 -96)" d="M0 0h1472v964H0z"/></clipPath></defs></svg>